# xmcd CD database file
#
# Track frame offsets:
#	150
#	24362
#	39325
#
# Disc length: 814 seconds
#
# Revision: 0
# Processed by: cddbd v1.5.1PL0 Copyright (c) Steve Scherf et al.
# Submitted via: CDex 1.51
#
DISCID=16032c03
DTITLE=麻波25 - advanced player
DYEAR=2000
DGENRE=JPop
TTITLE0=dvanced player
TTITLE1=hey day
TTITLE2=be brave
EXTD=YEAR: 2000/04/01
EXTT0=
EXTT1=
EXTT2=
PLAYORDER=
